<?xml version="1.0" encoding="UTF-8"?>
<svg id="Layer_1" data-name="Layer 1" xmlns="http://www.w3.org/2000/svg" viewBox="0 0 160 160">
  <defs>
    <style>
      .cls-1 {
        fill: #464646;
      }

      .cls-2 {
        fill: none;
        stroke: #464646;
        stroke-miterlimit: 10;
        stroke-width: 3px;
      }

      .cls-3 {
        fill: #f2f2f2;
      }
    </style>
  </defs>
  <path class="cls-1" d="M5.87,95.47l4.87-.72h.91l4.91.72v2.25H5.87v-2.25ZM19.84,65.73h3.94l10.92,32h-6.37l-8.91-27.24,1.46-1.23-9.48,28.47h-2.56l11-32ZM14.46,85.39h12.96l.93,2.51h-14.67l.79-2.51ZM25.37,88.69c-.02-.07-.02-.11,0-.12.35-.25,4.91,5.71,9.46,5.9,1.79.08,4.54-.71,8.1-5.41l-.31,4.62c-.4.76-1.95,3.5-5.32,4.81-4.48,1.74-8.44-.48-8.96-.78-.99-3.01-1.97-6.03-2.96-9.04Z"/>
  <path class="cls-1" d="M46.93,86.02c0,5.78,2.93,8.96,7.2,8.96,0,0,1.29,0,2.71-.51,2.39-.87,6.2-4.02,10.22-8.88-.02,1.52-.04,3.04-.06,4.57-.72,1.37-3.14,5.56-8.2,7.58-2.94,1.18-5.52,1.13-6.57,1.06-1.66-.1-4.91-.28-7.61-2.67-2.33-2.06-3.73-5.26-3.73-9.44,0-7.7,5.54-12.23,12-12.23,4.68,0,8.23,2.9,8.71,6.6-.38,1.46-1.24,2.15-2.71,2.15-1.74,0-2.84-1.07-3.13-3.38l-.81-3.82,2.86,1.88c-1.56-.78-3-1.11-4.43-1.11-3.45,0-6.45,2.93-6.45,9.25Z"/>
  <path class="cls-1" d="M72.81,89.94c0,3.62,1.11,4.84,3.24,4.84s4.57-1.57,6.48-3.78h1.43v2.82h-2.8l1.61-1.06c-2.51,4-5.74,6.03-9.28,6.03-3.98,0-6.56-2.3-6.49-8.64l.16-12.8,1.27,1.23-4.38-.96v-1.86l8.38-1.01.62.5-.24,6.76v7.93ZM81.56,97.38c-.01-1.97-.02-3.93-.03-5.9l.16-14.14,1.27,1.25-4.31-.96v-1.77l8.21-1.1.62.5-.14,6.76v13.71c.52.1,3.35.6,6-1.24,3.04-2.11,3.31-5.56,3.34-6,.17,1.86.34,3.73.52,5.59-.58.83-2.58,3.48-6.3,4.57-4.77,1.39-8.67-.86-9.32-1.26Z"/>
  <path class="cls-1" d="M96.18,98.12c.1-2.16.14-7.1.14-10.08v-2.27c0-2.64-.05-4.13-.14-6.05l-3.44-.43v-1.79l8.68-3.04.77.5-.14,6.73v6.35c0,2.98.05,7.92.14,10.08h-6.01ZM95.49,66.55c0-2.04,1.6-3.43,3.63-3.43s3.63,1.39,3.63,3.43-1.6,3.43-3.63,3.43-3.63-1.42-3.63-3.43Z"/>
  <path class="cls-1" d="M123.17,96.56h0s.7.02,1.42-.3c2.96-1.32,5.14-6.28,5.14-6.28.97-2.21,2.2-5.65,2.72-10.2,0-.42,0-.83,0-1.25.46.28.92.56,1.38.84-.29,10.6-4.04,18.4-7.93,19.75-2.37.82-4.97.61-4.98.61-1.75-.14-3.42-.32-4.66-1.58-.97-.99-1.5-2.46-1.5-4.48,0-1.31-.01-1.82.05-4.44.02-.95,0-1.23,0-2.35,0-.19,0-.33,0-.38,0-.42,0-.77,0-1.03-.3.99-.78,2.4-1.49,4.04-1.23,2.83-2.02,4.64-3.52,6.04-2.37,2.22-5.6,2.57-7.7,2.54-.11-1.42-.23-2.84-.34-4.26,2.03.34,3.46-.06,4.27-.39,2.48-1.01,3.72-3.23,5.39-6.19,1-1.79,1.66-3.38,2.09-4.56.34-.81.82-2.09,1.2-3.73.34-1.46.23-1.6.65-3.47.18-.82.48-1.89,1.05-3.99.24-.87.44-1.59.57-2.07h3.86l-.24,8.52v15.18c.02.99.05,1.98.07,2.97.15.14.65.59,1.42.64.49.03.87-.11,1.07-.2ZM126.41,76.08v2.9h-17.21v-2.9h17.21Z"/>
  <path class="cls-1" d="M128.93,107.35c.07-.34.22-.78.54-1.21,1-1.35,2.79-1.35,3.03-1.35.39,0,.9.04,1.47.23,1.31.44,2.06,1.37,2.35,1.77l1.49,1.84-1.84.93-1.38-.93c2.74-1.48,4.68-4.44,5.84-7.73l2.02-5.74,6.83-19.08h2.87l-9.13,23.84c-2.81,7.37-5.23,10.83-9.43,10.83-2.46,0-4.58-1.44-4.67-3.4ZM133.47,78.71l-4.53-.74v-1.89h12.57v1.9l-5.02.73h-3.02ZM141.04,101.82l-10.6-25.74h6.4l6.97,19.11-2.78,6.63ZM149.22,78.69l-4.54-.72v-1.89h9.23v1.89l-3.75.72h-.94Z"/>
  <g>
    <g>
      <path class="cls-1" d="M118.5,69.89c.2.02,1.63-.42,3.18-.99l3.26-1.19c1.55-.57,3.01-1.1,3.25-1.19s.52-.26.63-.38,1.08-1.23,2.18-2.46l18.66-21.14c1.09-1.24.97-3.14-.27-4.23l-3.56-3.14c-1.24-1.09-3.14-.97-4.24.27,0,0-18.12,20.54-20.73,23.5l-.18.2c-.06.06-.13.25-.17.42s-.44,1.92-.81,3.53l-.78,3.38c-.37,1.61-.62,3.41-.42,3.43Z"/>
      <path class="cls-2" d="M118.5,69.89c.2.02,1.63-.42,3.18-.99l3.26-1.19c1.55-.57,3.01-1.1,3.25-1.19s.52-.26.63-.38,1.08-1.23,2.18-2.46l18.66-21.14c1.09-1.24.97-3.14-.27-4.23l-3.56-3.14c-1.24-1.09-3.14-.97-4.24.27,0,0-18.12,20.54-20.73,23.5l-.18.2c-.06.06-.13.25-.17.42s-.44,1.92-.81,3.53l-.78,3.38c-.37,1.61-.62,3.41-.42,3.43Z"/>
    </g>
    <path class="cls-3" d="M127.84,66.23c.51-.2.86-.68.77-1.09s-.66-1.41-1.07-1.36-1.53-.19-1.59-.67-.59-1.72-1.04-1.67-1.65-.27-1.66-.82v-.4c-.02-.55-.47-.98-1.02-.96h-.42c-.55.03-1.09.49-1.2,1.03l-1.77,8.48c-.11.54.22.82.73.62l8.28-3.16Z"/>
    <polygon class="cls-1" points="121.68 68.95 119.21 66.54 118.39 69.83 121.68 68.95"/>
  </g>
</svg>